<svg width="435" height="97" viewBox="0 0 435 97" fill="none" xmlns="http://www.w3.org/2000/svg">
<path d="M395.939 96.28C371.999 96.28 357.817 84.5703 357.817 64.7938H389.694C389.694 68.8272 392.166 71.1691 395.939 71.1691C399.322 71.1691 401.794 69.3476 401.794 66.0949C401.794 61.2809 395.679 59.8497 388.133 57.8981C375.642 54.7755 358.988 50.7422 358.988 28.884C358.988 10.799 372.39 0 395.289 0C417.797 0 431.068 11.0592 431.068 29.6646H400.363C400.363 26.1517 398.541 24.2001 395.289 24.2001C392.166 24.2001 390.344 25.7614 390.344 28.3636C390.344 32.7872 396.459 34.3485 404.136 36.4303C417.017 39.8131 434.321 44.3669 434.321 65.3143C434.321 84.8305 420.009 96.28 395.939 96.28Z" fill="#F4F3F1"/>
<path d="M302.367 96.28C277.126 96.28 260.212 80.9272 260.212 57.2476V2.60214H291.699V57.3777C291.699 63.8831 295.862 68.4369 302.367 68.4369C308.873 68.4369 313.036 63.8831 313.036 57.3777V2.60214H344.522V57.2476C344.522 80.9272 327.608 96.28 302.367 96.28Z" fill="#F4F3F1"/>
<path d="M198.962 96.28C169.818 96.28 148.741 75.9831 148.741 48.14C148.741 20.2969 169.818 0 198.962 0C224.854 0 244.24 16.6538 247.493 41.2443H216.527C213.925 33.1776 207.029 27.713 199.093 27.713C188.294 27.713 181.008 35.9098 181.008 48.14C181.008 60.2401 188.294 68.4369 199.093 68.4369C207.55 68.4369 214.445 62.4519 216.397 53.6045H247.753C244.891 78.9756 225.244 96.28 198.962 96.28Z" fill="#F4F3F1"/>
<path d="M105.993 2.60214H134.877V93.6778H110.157L78.02 50.7421V93.6778H49.136V2.60214H74.7673L105.993 43.8464V2.60214Z" fill="#F4F3F1"/>
<path d="M0 93.6778V2.60214H30.9657V93.6778H0Z" fill="#F4F3F1"/>
</svg>
