<svg width="223" height="50" viewBox="0 0 223 50" fill="none" xmlns="http://www.w3.org/2000/svg">
<path d="M203.293 49.4345C191.001 49.4345 183.72 43.4222 183.72 33.2681H200.087C200.087 35.339 201.356 36.5414 203.293 36.5414C205.03 36.5414 206.299 35.6062 206.299 33.9361C206.299 31.4644 203.16 30.7295 199.285 29.7275C192.872 28.1242 184.321 26.0533 184.321 14.8303C184.321 5.54468 191.202 0 202.959 0C214.516 0 221.33 5.67828 221.33 15.2312H205.564C205.564 13.4275 204.629 12.4254 202.959 12.4254C201.356 12.4254 200.421 13.2271 200.421 14.5631C200.421 16.8344 203.56 17.6361 207.502 18.7049C214.115 20.4418 223 22.7799 223 33.5353C223 43.5558 215.652 49.4345 203.293 49.4345Z" fill="#F4F3F1"/>
<path d="M155.249 49.4345C142.289 49.4345 133.604 41.5517 133.604 29.3935V1.33606H149.771V29.4603C149.771 32.8004 151.909 35.1386 155.249 35.1386C158.589 35.1386 160.727 32.8004 160.727 29.4603V1.33606H176.893V29.3935C176.893 41.5517 168.209 49.4345 155.249 49.4345Z" fill="#F4F3F1"/>
<path d="M102.156 49.4345C87.1918 49.4345 76.3696 39.0132 76.3696 24.7172C76.3696 10.4213 87.1918 0 102.156 0C115.45 0 125.403 8.55083 127.073 21.1767H111.174C109.838 17.0349 106.298 14.2291 102.223 14.2291C96.6778 14.2291 92.9369 18.4377 92.9369 24.7172C92.9369 30.9299 96.6778 35.1386 102.223 35.1386C106.565 35.1386 110.105 32.0656 111.107 27.523H127.207C125.737 40.5496 115.65 49.4345 102.156 49.4345Z" fill="#F4F3F1"/>
<path d="M54.4226 1.33606H69.2529V48.0984H56.5603L40.0598 26.0533V48.0984H25.2295V1.33606H38.3898L54.4226 22.5127V1.33606Z" fill="#F4F3F1"/>
<path d="M0 48.0984V1.33606H15.8992V48.0984H0Z" fill="#F4F3F1"/>
</svg>
